<?xml version="1.0"?>
<svg xmlns="http://www.w3.org/2000/svg" width="100%" height="100%" id="Layer_1" data-name="Layer 1" viewBox="0 0 64 64">
    <rect x="1" y="9" width="62" height="46" rx="3" ry="3" style="fill:#bbdef9;"/>
    <polygon points="37.9 55.1 63.49 29.51 63 12 19.9 55.1 37.9 55.1" style="fill:#def0ff;"/>
    <polygon points="15.37 54.93 8.81 54.93 55 8.74 61.56 8.74 15.37 54.93" style="fill:#def0ff;"/>
    <polygon points="4.33 54.67 1 54 46 9 50 9 4.33 54.67" style="fill:#def0ff;"/>
    <polygon points="48 51.13 33.38 36.63 19 51 48 51.13" style="fill:#97e0bb;"/>
    <polygon points="62.34 47.26 47.87 34 30 51.87 62.34 51.87 62.34 47.26" style="fill:#72caaf;"/>
    <path d="M4,51H60a3,3,0,0,1,3,3v1a0,0,0,0,1,0,0H1a0,0,0,0,1,0,0V54A3,3,0,0,1,4,51Z"
          transform="translate(64 106) rotate(-180)" style="fill:#72caaf;"/>
    <circle cx="17" cy="25" r="4" style="fill:#ffeb9b;"/>
    <path d="M22.07,25a5,5,0,1,0-5,5A5,5,0,0,0,22.07,25Zm-5,3a3,3,0,1,1,3-3A3,3,0,0,1,17.07,28Z" style="fill:#8d6c9f;"/>
    <path d="M16,33v2a1,1,0,0,0,2,0V33a1,1,0,0,0-2,0Z" style="fill:#8d6c9f;"/>
    <path d="M17,18a1,1,0,0,0,1-1V15a1,1,0,1,0-2,0v2A1,1,0,0,0,17,18Z" style="fill:#8d6c9f;"/>
    <path d="M24,25a1,1,0,0,0,1,1h2a1,1,0,0,0,0-2H25A1,1,0,0,0,24,25Z" style="fill:#8d6c9f;"/>
    <path d="M7,26H9a1,1,0,0,0,0-2H7a1,1,0,1,0,0,2Z" style="fill:#8d6c9f;"/>
    <path d="M21.13,34.16a1,1,0,0,0,.87.5.84.84,0,0,0,.5-.14,1,1,0,0,0,.37-1.37l-1-1.73a1,1,0,0,0-1.73,1Z"
          style="fill:#8d6c9f;"/>
    <path d="M12.13,18.57a1,1,0,0,0,.87.5.84.84,0,0,0,.5-.14,1,1,0,0,0,.37-1.37l-1-1.73a1,1,0,0,0-1.73,1Z"
          style="fill:#8d6c9f;"/>
    <path d="M23.06,21.5a1.05,1.05,0,0,0,.88.53.84.84,0,0,0,.48-.16l1.73-1a1,1,0,1,0-1-1.73l-1.73,1A1,1,0,0,0,23.06,21.5Z"
          style="fill:#8d6c9f;"/>
    <path d="M10.94,28.5a1,1,0,0,0-1.37-.37l-1.73,1a1,1,0,0,0-.37,1.37,1.05,1.05,0,0,0,.88.53.84.84,0,0,0,.48-.16l1.73-1A1,1,0,0,0,10.94,28.5Z"
          style="fill:#8d6c9f;"/>
    <path d="M23.43,29.87l1.73,1a.84.84,0,0,0,.48.16,1.05,1.05,0,0,0,.88-.53,1,1,0,0,0-.37-1.37l-1.73-1a1,1,0,1,0-1,1.73Z"
          style="fill:#8d6c9f;"/>
    <path d="M7.84,20.87l1.73,1a.84.84,0,0,0,.48.16,1.05,1.05,0,0,0,.88-.53,1,1,0,0,0-.37-1.37l-1.73-1a1,1,0,1,0-1,1.73Z"
          style="fill:#8d6c9f;"/>
    <path d="M20.5,18.94a.84.84,0,0,0,.5.14,1,1,0,0,0,.87-.5l1-1.73a1,1,0,1,0-1.73-1l-1,1.73A1,1,0,0,0,20.5,18.94Z"
          style="fill:#8d6c9f;"/>
    <path d="M12.87,34.16l1-1.73a1,1,0,1,0-1.73-1l-1,1.73a1,1,0,0,0,.37,1.37.84.84,0,0,0,.5.14A1,1,0,0,0,12.87,34.16Z"
          style="fill:#8d6c9f;"/>
    <path d="M59,50H32.41L47.29,35.12a1,1,0,0,1,1.41,0l9.59,9.59a1,1,0,0,0,1.41-1.41l-9.59-9.59a3.07,3.07,0,0,0-4.24,0l-6.39,6.39L36.1,36.7a3.09,3.09,0,0,0-4.2,0L18.6,50H13a1,1,0,0,0-1,1,1,1,0,0,0,1,1H59a1,1,0,1,0,0-2ZM33.3,38.1a1,1,0,0,1,1.4,0l3.39,3.39L29.59,50H21.4Z"
          style="fill:#8d6c9f;"/>
    <path d="M9,50H5a1,1,0,0,0,0,2H9a1,1,0,0,0,0-2Z" style="fill:#8d6c9f;"/>
    <path d="M61,8H3a3,3,0,0,0-3,3V53a3,3,0,0,0,3,3H61a3,3,0,0,0,3-3V11A3,3,0,0,0,61,8Zm1,45a1,1,0,0,1-1,1H3a1,1,0,0,1-1-1V11a1,1,0,0,1,1-1H61a1,1,0,0,1,1,1Z"
          style="fill:#8d6c9f;"/>
</svg>
