<?xml version="1.0" encoding="UTF-8" standalone="no"?>
<!DOCTYPE svg PUBLIC "-//W3C//DTD SVG 1.1//EN" "http://www.w3.org/Graphics/SVG/1.1/DTD/svg11.dtd">
<svg width="100%" height="100%" viewBox="0 0 429 90" version="1.1" xmlns="http://www.w3.org/2000/svg" xmlns:xlink="http://www.w3.org/1999/xlink" xml:space="preserve" xmlns:serif="http://www.serif.com/" style="fill-rule:evenodd;clip-rule:evenodd;stroke-linejoin:round;stroke-miterlimit:1.41421;">
    <g transform="matrix(1,0,0,1,-217.543,-98.0795)">
        <g>
            <g transform="matrix(1,0,0,1,5e-05,-72.5128)">
                <path d="M268.112,210.524L304.292,193.349L304.292,209.054L286.65,217.523L286.65,259.694L301.04,252.878L301.04,226.573L318.681,218.104L318.681,170.592L268.112,194.597L268.112,210.524Z" style="fill:rgb(77,186,135);fill-rule:nonzero;"/>
            </g>
            <g transform="matrix(1,0,0,1,5e-05,-72.5128)">
                <path d="M217.543,170.593L217.543,218.109L235.192,226.577L235.192,252.913L249.582,259.752L249.582,217.52L231.932,209.051L231.932,193.35L268.112,210.525L268.112,194.598L217.543,170.593Z" style="fill:rgb(30,159,99);fill-rule:nonzero;"/>
            </g>
        </g>
        <g transform="matrix(1.3911,0,0,1.3911,-94.7241,-446.247)">
            <g transform="matrix(0.681175,0,0,0.681175,84.44,276.429)">
                <path d="M388.442,211.383L376.488,195.979L363.027,195.979L363.027,241.494L375.771,241.494L375.771,214.446L387.142,228.163L389.424,228.163L401.057,214.375L401.057,241.494L413.807,241.494L413.807,195.979L400.417,195.979L388.442,211.383Z" style="fill:rgb(77,186,135);fill-rule:nonzero;"/>
            </g>
            <g transform="matrix(0.681175,0,0,0.681175,85.8203,276.429)">
                <path d="M450.627,231.61C443.35,231.61 438.217,226.34 438.217,218.736C438.217,211.194 443.283,205.864 450.627,205.864C458.17,205.864 463.049,210.932 463.049,218.736C463.049,226.278 458.17,231.61 450.627,231.61M450.627,194.87C435.744,194.87 425.336,203.78 425.336,218.736C425.336,233.956 435.744,242.601 450.627,242.601C465.582,242.601 475.918,233.956 475.918,218.736C475.918,203.589 465.582,194.87 450.627,194.87" style="fill:rgb(77,186,135);fill-rule:nonzero;"/>
            </g>
            <g transform="matrix(0.681175,0,0,0.681175,87.3688,276.429)">
                <path d="M511.643,209.634L505.864,226.473L500.143,209.634L494.62,195.111L476.776,186.586L499.612,241.686L505.891,244.759L512.161,241.686L534.979,186.586L517.178,195.033L511.643,209.634Z" style="fill:rgb(77,186,135);fill-rule:nonzero;"/>
            </g>
            <g transform="matrix(0.681175,0,0,0.681175,88.9174,276.429)">
                <path d="M562.4,231.61C555.107,231.61 549.974,226.34 549.974,218.736C549.974,211.194 555.046,205.864 562.4,205.864C569.935,205.864 574.816,210.932 574.816,218.736C574.816,226.278 569.935,231.61 562.4,231.61M562.4,194.87C547.504,194.87 537.091,203.78 537.091,218.736C537.091,233.956 547.504,242.601 562.4,242.601C577.339,242.601 587.689,233.956 587.689,218.736C587.689,203.589 577.339,194.87 562.4,194.87" style="fill:rgb(77,186,135);fill-rule:nonzero;"/>
            </g>
            <g transform="matrix(0.751029,0,0,0.681175,50.5281,276.429)">
                <path d="M621.586,217.172L612.092,217.172L612.092,206.254L621.459,206.254C624.848,206.254 626.475,209.051 626.475,211.916C626.475,214.648 624.975,217.172 621.586,217.172M629.514,225.364C637.19,221.983 639.147,217.247 639.147,211.642C639.147,203.456 633.092,195.979 621.459,195.979L599.219,195.979L599.219,241.494L612.092,241.494L612.092,226.73L616.582,226.73L627.182,241.494L641.354,241.494L641.354,240.711L629.514,225.364Z" style="fill:rgb(77,186,135);fill-rule:nonzero;"/>
            </g>
        </g>
    </g>
</svg>
